<mxfile host="app.diagrams.net" modified="2023-07-28T16:59:47.426Z" agent="Mozilla/5.0 (Macintosh; Intel Mac OS X 10_15_7) AppleWebKit/605.1.15 (KHTML, like Gecko) Version/16.3 Safari/605.1.15" etag="Q8H4XEjaxXvC395VAC-j" version="21.6.5" type="github">
  <diagram name="Pagina-1" id="1w-ATxlC77_0xpjdE35k">
    <mxGraphModel dx="1167" dy="696" grid="1" gridSize="10" guides="1" tooltips="1" connect="1" arrows="1" fold="1" page="1" pageScale="1" pageWidth="1169" pageHeight="827" math="1" shadow="0">
      <root>
        <mxCell id="0" />
        <mxCell id="1" parent="0" />
        <mxCell id="m6a8vdt9xj0aYVUtu1R2-1" value="Decoder" style="whiteSpace=wrap;html=1;aspect=fixed;" vertex="1" parent="1">
          <mxGeometry x="880" y="160" width="80" height="80" as="geometry" />
        </mxCell>
        <mxCell id="m6a8vdt9xj0aYVUtu1R2-9" value="Persona extractor" style="whiteSpace=wrap;html=1;aspect=fixed;" vertex="1" parent="1">
          <mxGeometry x="400" y="320" width="80" height="80" as="geometry" />
        </mxCell>
        <mxCell id="m6a8vdt9xj0aYVUtu1R2-20" value="Decoder" style="whiteSpace=wrap;html=1;aspect=fixed;" vertex="1" parent="1">
          <mxGeometry x="880" y="320" width="80" height="80" as="geometry" />
        </mxCell>
        <mxCell id="m6a8vdt9xj0aYVUtu1R2-25" value="$$S_1$$" style="rounded=0;whiteSpace=wrap;html=1;" vertex="1" parent="1">
          <mxGeometry x="330" y="185" width="80" height="30" as="geometry" />
        </mxCell>
        <mxCell id="m6a8vdt9xj0aYVUtu1R2-26" value="$$S_1$$" style="rounded=0;whiteSpace=wrap;html=1;" vertex="1" parent="1">
          <mxGeometry x="420" y="185" width="80" height="30" as="geometry" />
        </mxCell>
        <mxCell id="m6a8vdt9xj0aYVUtu1R2-27" value="" style="rounded=0;whiteSpace=wrap;html=1;fillColor=#dae8fc;strokeColor=#6c8ebf;" vertex="1" parent="1">
          <mxGeometry x="410" y="185" width="10" height="30" as="geometry" />
        </mxCell>
        <mxCell id="m6a8vdt9xj0aYVUtu1R2-28" value="" style="rounded=0;whiteSpace=wrap;html=1;fillColor=#dae8fc;strokeColor=#6c8ebf;" vertex="1" parent="1">
          <mxGeometry x="320" y="185" width="10" height="30" as="geometry" />
        </mxCell>
        <mxCell id="m6a8vdt9xj0aYVUtu1R2-29" value="" style="rounded=0;whiteSpace=wrap;html=1;fillColor=#dae8fc;strokeColor=#6c8ebf;" vertex="1" parent="1">
          <mxGeometry x="500" y="185" width="10" height="30" as="geometry" />
        </mxCell>
        <mxCell id="m6a8vdt9xj0aYVUtu1R2-30" value="$$S_T$$" style="rounded=0;whiteSpace=wrap;html=1;" vertex="1" parent="1">
          <mxGeometry x="710" y="185" width="80" height="30" as="geometry" />
        </mxCell>
        <mxCell id="m6a8vdt9xj0aYVUtu1R2-31" value="" style="rounded=0;whiteSpace=wrap;html=1;fillColor=#dae8fc;strokeColor=#6c8ebf;" vertex="1" parent="1">
          <mxGeometry x="650" y="185" width="10" height="30" as="geometry" />
        </mxCell>
        <mxCell id="m6a8vdt9xj0aYVUtu1R2-32" value="$$S_{T-1}$$" style="rounded=0;whiteSpace=wrap;html=1;" vertex="1" parent="1">
          <mxGeometry x="570" y="185" width="80" height="30" as="geometry" />
        </mxCell>
        <mxCell id="m6a8vdt9xj0aYVUtu1R2-33" value="" style="rounded=0;whiteSpace=wrap;html=1;fillColor=#dae8fc;strokeColor=#6c8ebf;" vertex="1" parent="1">
          <mxGeometry x="560" y="185" width="10" height="30" as="geometry" />
        </mxCell>
        <mxCell id="m6a8vdt9xj0aYVUtu1R2-34" value="$$\cdots$$" style="text;html=1;strokeColor=none;fillColor=none;align=center;verticalAlign=middle;whiteSpace=wrap;rounded=0;" vertex="1" parent="1">
          <mxGeometry x="510" y="185" width="50" height="30" as="geometry" />
        </mxCell>
        <mxCell id="m6a8vdt9xj0aYVUtu1R2-35" value="$$P^0_{self}$$" style="rounded=0;whiteSpace=wrap;html=1;" vertex="1" parent="1">
          <mxGeometry x="660" y="185" width="40" height="30" as="geometry" />
        </mxCell>
        <mxCell id="m6a8vdt9xj0aYVUtu1R2-36" value="" style="rounded=0;whiteSpace=wrap;html=1;fillColor=#dae8fc;strokeColor=#6c8ebf;" vertex="1" parent="1">
          <mxGeometry x="700" y="185" width="10" height="30" as="geometry" />
        </mxCell>
        <mxCell id="m6a8vdt9xj0aYVUtu1R2-38" value="" style="rounded=0;whiteSpace=wrap;html=1;fillColor=none;" vertex="1" parent="1">
          <mxGeometry x="310" y="170" width="530" height="60" as="geometry" />
        </mxCell>
        <mxCell id="m6a8vdt9xj0aYVUtu1R2-39" value="" style="endArrow=classic;html=1;rounded=0;entryX=0;entryY=0.5;entryDx=0;entryDy=0;exitX=1;exitY=0.5;exitDx=0;exitDy=0;" edge="1" parent="1" source="m6a8vdt9xj0aYVUtu1R2-38" target="m6a8vdt9xj0aYVUtu1R2-1">
          <mxGeometry width="50" height="50" relative="1" as="geometry">
            <mxPoint x="790" y="305" as="sourcePoint" />
            <mxPoint x="840" y="255" as="targetPoint" />
          </mxGeometry>
        </mxCell>
        <mxCell id="m6a8vdt9xj0aYVUtu1R2-40" value="" style="rounded=0;whiteSpace=wrap;html=1;fillColor=none;" vertex="1" parent="1">
          <mxGeometry x="560" y="330" width="280" height="60" as="geometry" />
        </mxCell>
        <mxCell id="m6a8vdt9xj0aYVUtu1R2-41" value="" style="group" vertex="1" connectable="0" parent="1">
          <mxGeometry x="570" y="342.5" width="220" height="35" as="geometry" />
        </mxCell>
        <mxCell id="m6a8vdt9xj0aYVUtu1R2-2" value="$$P^E_{self}$$" style="rounded=0;whiteSpace=wrap;html=1;" vertex="1" parent="m6a8vdt9xj0aYVUtu1R2-41">
          <mxGeometry x="50" width="40" height="35" as="geometry" />
        </mxCell>
        <mxCell id="m6a8vdt9xj0aYVUtu1R2-3" value="$$P^E_{other}$$" style="rounded=0;whiteSpace=wrap;html=1;" vertex="1" parent="m6a8vdt9xj0aYVUtu1R2-41">
          <mxGeometry x="90" width="40" height="35" as="geometry" />
        </mxCell>
        <mxCell id="m6a8vdt9xj0aYVUtu1R2-4" value="$$P^0_{self}$$" style="rounded=0;whiteSpace=wrap;html=1;" vertex="1" parent="m6a8vdt9xj0aYVUtu1R2-41">
          <mxGeometry x="10" width="40" height="35" as="geometry" />
        </mxCell>
        <mxCell id="m6a8vdt9xj0aYVUtu1R2-6" value="" style="rounded=0;whiteSpace=wrap;html=1;fillColor=#dae8fc;strokeColor=#6c8ebf;" vertex="1" parent="m6a8vdt9xj0aYVUtu1R2-41">
          <mxGeometry width="10" height="35" as="geometry" />
        </mxCell>
        <mxCell id="m6a8vdt9xj0aYVUtu1R2-7" value="" style="rounded=0;whiteSpace=wrap;html=1;fillColor=#dae8fc;strokeColor=#6c8ebf;" vertex="1" parent="m6a8vdt9xj0aYVUtu1R2-41">
          <mxGeometry x="130" width="10" height="35" as="geometry" />
        </mxCell>
        <mxCell id="m6a8vdt9xj0aYVUtu1R2-8" value="$$S^T$$" style="rounded=0;whiteSpace=wrap;html=1;" vertex="1" parent="m6a8vdt9xj0aYVUtu1R2-41">
          <mxGeometry x="140" width="80" height="35" as="geometry" />
        </mxCell>
        <mxCell id="m6a8vdt9xj0aYVUtu1R2-42" value="" style="endArrow=classic;html=1;rounded=0;entryX=0;entryY=0.5;entryDx=0;entryDy=0;exitX=1;exitY=0.5;exitDx=0;exitDy=0;" edge="1" parent="1" source="m6a8vdt9xj0aYVUtu1R2-40" target="m6a8vdt9xj0aYVUtu1R2-20">
          <mxGeometry width="50" height="50" relative="1" as="geometry">
            <mxPoint x="810" y="210" as="sourcePoint" />
            <mxPoint x="850" y="210" as="targetPoint" />
          </mxGeometry>
        </mxCell>
        <mxCell id="m6a8vdt9xj0aYVUtu1R2-43" value="" style="rounded=0;whiteSpace=wrap;html=1;fillColor=none;" vertex="1" parent="1">
          <mxGeometry x="20" y="330" width="340" height="60" as="geometry" />
        </mxCell>
        <mxCell id="m6a8vdt9xj0aYVUtu1R2-46" value="" style="group" vertex="1" connectable="0" parent="1">
          <mxGeometry x="20" y="345.5" width="330" height="30" as="geometry" />
        </mxCell>
        <mxCell id="m6a8vdt9xj0aYVUtu1R2-10" value="$$S_1$$" style="rounded=0;whiteSpace=wrap;html=1;" vertex="1" parent="m6a8vdt9xj0aYVUtu1R2-46">
          <mxGeometry x="10" width="80" height="30" as="geometry" />
        </mxCell>
        <mxCell id="m6a8vdt9xj0aYVUtu1R2-11" value="$$S_1$$" style="rounded=0;whiteSpace=wrap;html=1;" vertex="1" parent="m6a8vdt9xj0aYVUtu1R2-46">
          <mxGeometry x="100" width="80" height="30" as="geometry" />
        </mxCell>
        <mxCell id="m6a8vdt9xj0aYVUtu1R2-17" value="$$S_{T-1}$$" style="rounded=0;whiteSpace=wrap;html=1;" vertex="1" parent="m6a8vdt9xj0aYVUtu1R2-46">
          <mxGeometry x="250" width="80" height="30" as="geometry" />
        </mxCell>
        <mxCell id="m6a8vdt9xj0aYVUtu1R2-19" value="$$\cdots$$" style="text;html=1;strokeColor=none;fillColor=none;align=center;verticalAlign=middle;whiteSpace=wrap;rounded=0;" vertex="1" parent="m6a8vdt9xj0aYVUtu1R2-46">
          <mxGeometry x="190" width="50" height="30" as="geometry" />
        </mxCell>
        <mxCell id="m6a8vdt9xj0aYVUtu1R2-47" value="" style="endArrow=classic;html=1;rounded=0;entryX=0;entryY=0.5;entryDx=0;entryDy=0;exitX=1;exitY=0.5;exitDx=0;exitDy=0;" edge="1" parent="1" source="m6a8vdt9xj0aYVUtu1R2-43" target="m6a8vdt9xj0aYVUtu1R2-9">
          <mxGeometry width="50" height="50" relative="1" as="geometry">
            <mxPoint x="370" y="420" as="sourcePoint" />
            <mxPoint x="410" y="420" as="targetPoint" />
          </mxGeometry>
        </mxCell>
        <mxCell id="m6a8vdt9xj0aYVUtu1R2-48" value="" style="edgeStyle=segmentEdgeStyle;endArrow=classic;html=1;curved=0;rounded=0;endSize=8;startSize=8;" edge="1" parent="1">
          <mxGeometry width="50" height="50" relative="1" as="geometry">
            <mxPoint x="520" y="410" as="sourcePoint" />
            <mxPoint x="680" y="377.5" as="targetPoint" />
          </mxGeometry>
        </mxCell>
        <mxCell id="m6a8vdt9xj0aYVUtu1R2-49" value="" style="endArrow=classic;html=1;rounded=0;entryX=0.5;entryY=1;entryDx=0;entryDy=0;" edge="1" parent="1" target="m6a8vdt9xj0aYVUtu1R2-2">
          <mxGeometry width="50" height="50" relative="1" as="geometry">
            <mxPoint x="640" y="410" as="sourcePoint" />
            <mxPoint x="640" y="450" as="targetPoint" />
          </mxGeometry>
        </mxCell>
        <mxCell id="m6a8vdt9xj0aYVUtu1R2-50" value="" style="shape=partialRectangle;whiteSpace=wrap;html=1;top=0;left=0;fillColor=none;flipV=1;" vertex="1" parent="1">
          <mxGeometry x="480" y="360" width="40" height="50" as="geometry" />
        </mxCell>
        <mxCell id="m6a8vdt9xj0aYVUtu1R2-53" value="$$y_{&amp;lt;t}$$" style="rounded=0;whiteSpace=wrap;html=1;" vertex="1" parent="1">
          <mxGeometry x="790" y="185" width="40" height="30" as="geometry" />
        </mxCell>
        <mxCell id="m6a8vdt9xj0aYVUtu1R2-55" value="$$y_t$$" style="text;html=1;strokeColor=none;fillColor=none;align=center;verticalAlign=middle;whiteSpace=wrap;rounded=0;" vertex="1" parent="1">
          <mxGeometry x="1000" y="185" width="40" height="30" as="geometry" />
        </mxCell>
        <mxCell id="m6a8vdt9xj0aYVUtu1R2-56" value="" style="endArrow=classic;html=1;rounded=0;exitX=1;exitY=0.5;exitDx=0;exitDy=0;entryX=0;entryY=0.5;entryDx=0;entryDy=0;" edge="1" parent="1" source="m6a8vdt9xj0aYVUtu1R2-1" target="m6a8vdt9xj0aYVUtu1R2-55">
          <mxGeometry width="50" height="50" relative="1" as="geometry">
            <mxPoint x="970" y="199.5" as="sourcePoint" />
            <mxPoint x="990" y="210" as="targetPoint" />
          </mxGeometry>
        </mxCell>
        <mxCell id="m6a8vdt9xj0aYVUtu1R2-57" value="" style="edgeStyle=elbowEdgeStyle;elbow=vertical;endArrow=classic;html=1;curved=0;rounded=0;endSize=8;startSize=8;dashed=1;" edge="1" parent="1">
          <mxGeometry width="50" height="50" relative="1" as="geometry">
            <mxPoint x="1020" y="220" as="sourcePoint" />
            <mxPoint x="810" y="215" as="targetPoint" />
            <Array as="points">
              <mxPoint x="910" y="260" />
            </Array>
          </mxGeometry>
        </mxCell>
        <mxCell id="m6a8vdt9xj0aYVUtu1R2-66" value="$$y_{&amp;lt;t}$$" style="rounded=0;whiteSpace=wrap;html=1;" vertex="1" parent="1">
          <mxGeometry x="790" y="342.5" width="40" height="35" as="geometry" />
        </mxCell>
        <mxCell id="m6a8vdt9xj0aYVUtu1R2-67" value="$$y_t$$" style="text;html=1;strokeColor=none;fillColor=none;align=center;verticalAlign=middle;whiteSpace=wrap;rounded=0;" vertex="1" parent="1">
          <mxGeometry x="1000" y="345.5" width="40" height="30" as="geometry" />
        </mxCell>
        <mxCell id="m6a8vdt9xj0aYVUtu1R2-68" value="" style="endArrow=classic;html=1;rounded=0;exitX=1;exitY=0.5;exitDx=0;exitDy=0;entryX=0;entryY=0.5;entryDx=0;entryDy=0;" edge="1" parent="1">
          <mxGeometry width="50" height="50" relative="1" as="geometry">
            <mxPoint x="960" y="360.5" as="sourcePoint" />
            <mxPoint x="1000" y="360.5" as="targetPoint" />
          </mxGeometry>
        </mxCell>
        <mxCell id="m6a8vdt9xj0aYVUtu1R2-69" value="" style="edgeStyle=elbowEdgeStyle;elbow=vertical;endArrow=classic;html=1;curved=0;rounded=0;endSize=8;startSize=8;dashed=1;" edge="1" parent="1">
          <mxGeometry width="50" height="50" relative="1" as="geometry">
            <mxPoint x="1020" y="382.5" as="sourcePoint" />
            <mxPoint x="810" y="377.5" as="targetPoint" />
            <Array as="points">
              <mxPoint x="910" y="422.5" />
            </Array>
          </mxGeometry>
        </mxCell>
      </root>
    </mxGraphModel>
  </diagram>
</mxfile>
